<svg xmlns="http://www.w3.org/2000/svg" viewBox="0 0 500 500"><g id="freepik--background-complete--inject-40"><rect y="382.4" width="500" height="0.25" style="fill:#ebebeb"></rect><rect x="416.78" y="398.49" width="33.12" height="0.25" style="fill:#ebebeb"></rect><rect x="322.53" y="401.21" width="8.69" height="0.25" style="fill:#ebebeb"></rect><rect x="396.59" y="389.21" width="19.19" height="0.25" style="fill:#ebebeb"></rect><rect x="52.46" y="390.89" width="43.19" height="0.25" style="fill:#ebebeb"></rect><rect x="104.56" y="390.89" width="6.33" height="0.25" style="fill:#ebebeb"></rect><rect x="131.47" y="395.11" width="93.68" height="0.25" style="fill:#ebebeb"></rect><path d="M237,337.8H43.91a5.71,5.71,0,0,1-5.7-5.71V60.66A5.71,5.71,0,0,1,43.91,55H237a5.71,5.71,0,0,1,5.71,5.71V332.09A5.71,5.71,0,0,1,237,337.8ZM43.91,55.2a5.46,5.46,0,0,0-5.45,5.46V332.09a5.46,5.46,0,0,0,5.45,5.46H237a5.47,5.47,0,0,0,5.46-5.46V60.66A5.47,5.47,0,0,0,237,55.2Z" style="fill:#ebebeb"></path><path d="M453.31,337.8H260.21a5.72,5.72,0,0,1-5.71-5.71V60.66A5.72,5.72,0,0,1,260.21,55h193.1A5.71,5.71,0,0,1,459,60.66V332.09A5.71,5.71,0,0,1,453.31,337.8ZM260.21,55.2a5.47,5.47,0,0,0-5.46,5.46V332.09a5.47,5.47,0,0,0,5.46,5.46h193.1a5.47,5.47,0,0,0,5.46-5.46V60.66a5.47,5.47,0,0,0-5.46-5.46Z" style="fill:#ebebeb"></path><polygon points="110.45 307.23 110.45 323.93 103.39 329.05 136.32 329.05 125.8 325.16 125.8 308.4 110.45 307.23" style="fill:#e0e0e0"></polygon><path d="M42.29,328.57v52.6h162v-52.6Zm159.32,20.6h-130V332h130Z" style="fill:#e0e0e0"></path><path d="M68,328.57v52.6H204.26v-52.6Zm133.57,20.6h-130V332h130Z" style="fill:#ebebeb"></path><rect x="177.9" y="331.98" width="23.71" height="17.19" style="fill:#e0e0e0"></rect><rect x="71.58" y="340.58" width="34.33" height="8.59" style="fill:#e0e0e0"></rect><rect x="108.07" y="344.07" width="22.08" height="5.1" style="fill:#e0e0e0"></rect><rect x="135.26" y="338.73" width="26.04" height="10.44" style="fill:#e0e0e0"></rect><polygon points="97.43 352.91 96.8 354.97 88.35 354.97 87.72 352.91 71.58 352.91 71.58 375.73 113.57 375.73 113.57 352.91 97.43 352.91" style="fill:#e0e0e0"></polygon><polygon points="141.39 352.91 140.76 354.97 132.32 354.97 131.69 352.91 115.54 352.91 115.54 375.73 157.54 375.73 157.54 352.91 141.39 352.91" style="fill:#e0e0e0"></polygon><polygon points="185.36 352.91 184.73 354.97 176.28 354.97 175.65 352.91 159.51 352.91 159.51 375.73 201.5 375.73 201.5 352.91 185.36 352.91" style="fill:#e0e0e0"></polygon><rect x="65.28" y="246.13" width="117.64" height="71.08" rx="3.53" style="fill:#e0e0e0"></rect><rect x="68.04" y="246.13" width="117.64" height="71.08" rx="3.53" style="fill:#e6e6e6"></rect><rect x="94.78" y="226.3" width="64.17" height="110.73" transform="translate(408.53 154.81) rotate(90)" style="fill:#f0f0f0"></rect><path d="M280.33,240H423.61a20.66,20.66,0,0,1,20.67,20.67v82.21H259.66V260.64A20.66,20.66,0,0,1,280.33,240Z" style="fill:#e6e6e6"></path><path d="M228.53,300.9h18.84a12.28,12.28,0,0,1,12.29,12.28v68H216.25v-68A12.28,12.28,0,0,1,228.53,300.9Z" style="fill:#e0e0e0"></path><path d="M228.53,300.9h.4a12.28,12.28,0,0,1,12.29,12.28v68h-25v-68A12.28,12.28,0,0,1,228.53,300.9Z" style="fill:#ebebeb"></path><rect x="246.47" y="349.94" width="182.48" height="31.23" style="fill:#e6e6e6"></rect><rect x="233.78" y="321.38" width="202.32" height="32.76" rx="12.49" style="fill:#f5f5f5"></rect><rect x="393.6" y="321.38" width="42.26" height="32.76" rx="12.49" style="fill:#e0e0e0;isolation:isolate"></rect><path d="M425.24,300.9h18.84a12.28,12.28,0,0,1,12.28,12.28v68H413v-68A12.28,12.28,0,0,1,425.24,300.9Z" style="fill:#e0e0e0"></path><path d="M425.24,300.9h.4a12.28,12.28,0,0,1,12.28,12.28v68H413v-68A12.28,12.28,0,0,1,425.24,300.9Z" style="fill:#f0f0f0"></path><rect x="51.91" y="89.79" width="112.62" height="124.62" style="fill:#e9e9e9"></rect><rect x="56.87" y="94.72" width="103" height="115" style="fill:#f4f4f4"></rect><polygon points="85.97 94.72 56.87 203.74 56.87 144.72 70.19 94.72 85.97 94.72" style="fill:#fff"></polygon><polygon points="98.98 94.72 68.28 209.72 62.49 209.72 93.19 94.72 98.98 94.72" style="fill:#fff"></polygon><polygon points="159.87 126.08 159.87 185.11 153.34 209.72 137.56 209.72 159.87 126.08" style="fill:#fff"></polygon><rect x="106.22" y="89.79" width="4" height="124.62" style="fill:#e9e9e9"></rect><rect x="53.87" y="115.07" width="108.5" height="4" style="fill:#e9e9e9"></rect><rect x="321.71" y="130.96" width="31.01" height="43.87" transform="translate(184.31 490.12) rotate(-90)" style="fill:#e0e0e0"></rect><rect x="323.73" y="133.03" width="26.96" height="39.75" transform="translate(184.31 490.12) rotate(-90)" style="fill:#ebebeb"></rect><rect x="336.93" y="92.01" width="31.01" height="43.87" transform="translate(238.48 466.38) rotate(-90)" style="fill:#e0e0e0"></rect><rect x="338.95" y="94.08" width="26.96" height="39.75" transform="translate(238.48 466.38) rotate(-90)" style="fill:#ebebeb"></rect><rect x="367.47" y="137.4" width="27.92" height="39.5" style="fill:#e0e0e0"></rect><rect x="369.29" y="139.26" width="24.28" height="35.79" style="fill:#ebebeb"></rect><rect x="380.27" y="85.58" width="31.01" height="43.87" style="fill:#e0e0e0"></rect><rect x="382.29" y="87.64" width="26.96" height="39.75" style="fill:#ebebeb"></rect><rect x="409.91" y="132.36" width="24.28" height="34.35" transform="translate(571.58 -272.51) rotate(90)" style="fill:#e0e0e0"></rect><rect x="411.49" y="133.98" width="21.11" height="31.12" transform="translate(571.58 -272.51) rotate(90)" style="fill:#ebebeb"></rect></g><g id="freepik--Shadow--inject-40"><ellipse id="freepik--path--inject-40" cx="250" cy="416.24" rx="193.89" ry="11.32" style="fill:#f5f5f5"></ellipse></g><g id="freepik--Plant--inject-40"><path d="M83.43,384.81c-.16-1-3.66-25.18,3.35-33.51a7.61,7.61,0,0,1,5.83-2.87c14.15-.33,16.08,11,16.1,11.15l-1.67.26c-.06-.41-1.74-10-14.39-9.72a5.9,5.9,0,0,0-4.57,2.26c-6.53,7.77-3,31.93-3,32.18Z" style="fill:#A9D8FF"></path><path d="M82.57,383.71l-1.69-.06c0-.22.56-22.25-10.29-26.8C60,352.4,55.17,361.56,55,362l-1.51-.76c0-.11,5.67-11,17.78-5.89C83.16,360.29,82.6,382.75,82.57,383.71Z" style="fill:#A9D8FF"></path><path d="M82.62,385.44c0-.35-.1-35.19-6.9-45.38-6.52-9.79-17-5.18-17.48-5l-.7-1.54c.12-.05,12.26-5.41,19.59,5.58,7.07,10.61,7.18,44.86,7.18,46.31Z" style="fill:#A9D8FF"></path><path d="M94.63,349.27s-6.18,2.28-4.34,7.65,21.38,14.23,21.38,14.23,8.18-7.5.66-19.7S94.8,345.42,94.63,349.27Z" style="fill:#A9D8FF"></path><path d="M75.42,338.22s4.38-.47,4-3.14-17.05-9.55-26.91,1.57c0,0,6.31,10.84,15.43,11S75.42,338.22,75.42,338.22Z" style="fill:#A9D8FF"></path><path d="M70.91,356.07s3-2.44-.23-3.63-19.31-.86-19.47,15c0,0,18.67,3.11,21-2.94S70.91,356.07,70.91,356.07Z" style="fill:#A9D8FF"></path><path d="M94.63,349.27s-6.18,2.28-4.34,7.65,21.38,14.23,21.38,14.23,8.18-7.5.66-19.7S94.8,345.42,94.63,349.27Z" style="fill:#fff;opacity:0.2;isolation:isolate"></path><path d="M75.42,338.22s4.38-.47,4-3.14-17.05-9.55-26.91,1.57c0,0,6.31,10.84,15.43,11S75.42,338.22,75.42,338.22Z" style="fill:#fff;opacity:0.2;isolation:isolate"></path><path d="M70.91,356.07s3-2.44-.23-3.63-19.31-.86-19.47,15c0,0,18.67,3.11,21-2.94S70.91,356.07,70.91,356.07Z" style="fill:#fff;opacity:0.2;isolation:isolate"></path><polygon points="97.95 417.16 68.97 417.16 65.85 385.44 101.08 385.44 97.95 417.16" style="fill:#A9D8FF"></polygon><polygon points="97.95 417.16 68.97 417.16 65.85 385.44 101.08 385.44 97.95 417.16" style="fill:#fff;opacity:0.5;isolation:isolate"></polygon><rect x="64.3" y="381.93" width="38.32" height="7" style="fill:#A9D8FF"></rect><rect x="64.3" y="381.93" width="38.32" height="7" style="fill:#fff;opacity:0.2;isolation:isolate"></rect></g><g id="freepik--speech-bubble--inject-40"><rect x="228.42" y="102.94" width="21.1" height="21.1" rx="3.69" transform="translate(483.1 215.44) rotate(177.26)" style="fill:#A9D8FF"></rect><path d="M233,109.62c1.38-2.49,4.26-1.69,5.82.12,1.38-1.95,4.18-3,5.79-.67,2.7,4-2.29,8-4.66,9.57-.27.18-.49.34-.68.45l-.72-.38C236,117.35,230.66,113.82,233,109.62Z" style="fill:#fff;opacity:0.6000000000000001;isolation:isolate"></path><path d="M237.13,122.51s3.07,6.19,9.36,7.87c0,0-3.52-1.81-3.57-8.41Z" style="fill:#A9D8FF"></path></g><g id="freepik--character-1--inject-40"><path d="M150.57,180.24c8.28,2.58,8.48,11.09,27.43,27.94,10.56,9.39,27.42,13.37,27.42,13.37l-2.28,6.52s-25.28.77-51.15-29.35Z" style="fill:#A9D8FF"></path><path d="M205.42,221.55l-2.28,6.52a37.55,37.55,0,0,1-9-1.25c-.77-.19-1.59-.4-2.44-.65a62.91,62.91,0,0,1-8.39-3.09c-.73-.33-1.48-.68-2.25-1.06a74.42,74.42,0,0,1-7.23-4.05q-1-.65-2.07-1.35-2.94-2-6-4.44c-.63-.5-1.26-1-1.9-1.58-1-.88-2.1-1.82-3.16-2.8-.74-.68-1.48-1.39-2.22-2.12s-1.2-1.18-1.8-1.8c-1.45-1.51-2.93-3.11-4.4-4.82a3.31,3.31,0,0,1-.3-.34l-.52-6.76-.3-3.92-.6-7.8c.46.15.9.3,1.31.48a12.06,12.06,0,0,1,2.55,1.53c2.23,1.71,4,4.24,6.69,7.71.63.83,1.3,1.72,2,2.67,1.67,2.09,3.65,4.46,6.14,7.12.61.65,1.25,1.31,1.92,2h0c1.6,1.63,3.39,3.36,5.4,5.19.45.4.9.82,1.37,1.23.21.19.41.37.63.54a47,47,0,0,0,6.58,4.64c.73.43,1.45.84,2.19,1.23a76,76,0,0,0,7.26,3.4c.81.32,1.58.63,2.33.9A75.85,75.85,0,0,0,205.42,221.55Z" style="fill:#fff;opacity:0.6000000000000001"></path><path d="M152.29,199.06a3.31,3.31,0,0,1-.3-.34l-.52-6.76a55.85,55.85,0,0,0,.41-11.24,12.06,12.06,0,0,1,2.55,1.53C154.6,186.82,154.34,193.3,152.29,199.06Z" style="fill:#A9D8FF"></path><path d="M163.17,192.63a39.31,39.31,0,0,1-4.68,13.05c-.59-.58-1.2-1.18-1.8-1.8A40.77,40.77,0,0,0,161.12,190C161.75,190.79,162.42,191.68,163.17,192.63Z" style="fill:#A9D8FF"></path><path d="M171.23,201.75h0a43.09,43.09,0,0,1-5.46,10.42c-.63-.5-1.26-1-1.9-1.58a42.6,42.6,0,0,0,5.44-10.85C169.92,200.4,170.56,201.06,171.23,201.75Z" style="fill:#A9D8FF"></path><path d="M178.63,208.72a44.71,44.71,0,0,1-4.77,9.25q-1-.65-2.07-1.35a42.67,42.67,0,0,0,4.84-9.67c.45.4.9.82,1.37,1.23C178.21,208.37,178.41,208.55,178.63,208.72Z" style="fill:#A9D8FF"></path><path d="M187.4,214.59a46.74,46.74,0,0,1-4.06,8.49c-.73-.33-1.48-.68-2.25-1.06a45.94,45.94,0,0,0,4.12-8.66C185.94,213.79,186.66,214.2,187.4,214.59Z" style="fill:#A9D8FF"></path><path d="M197,218.89a50.87,50.87,0,0,1-2.82,7.93c-.77-.19-1.59-.4-2.44-.65a46.45,46.45,0,0,0,2.93-8.18C195.47,218.31,196.24,218.62,197,218.89Z" style="fill:#A9D8FF"></path><path d="M160.71,207.8c-.74-.68-1.48-1.39-2.22-2.12s-1.2-1.18-1.8-1.8c-1.45-1.51-2.93-3.11-4.4-4.82a3.31,3.31,0,0,1-.3-.34l-.52-6.76-.3-3.92C154.11,190.79,158.69,196.68,160.71,207.8Z" style="opacity:0.2;isolation:isolate"></path><path d="M121.32,140.06s.34-5.61-5.28-6.78-9.82.06-11.74,6.39,2,13.78,2.09,16.35-4.26,1.54-3.63,4.14,3.5,3.23,3.37,4.79-3.11.53-2.33,5.14,5.45,5.12,6.36,3.63-2.47-1.48-.39-3.63,4.2-1.25,3.4-5.14-.53-5.61,3.29-7.67S121.32,140.06,121.32,140.06Z" style="fill:#263238"></path><path d="M141.32,156s.78-7.26-1.41-10a31.48,31.48,0,0,0-5.29-5,16,16,0,0,0-12.4-2.65c-7,1.55-10.37,8.1-9.6,16.64a16.59,16.59,0,0,0,7.29,12.36s.68,4.63,7.78,1.86S141.32,156,141.32,156Z" style="fill:#263238"></path><polygon points="180.87 403.52 174.31 404.68 171.62 395.74 169.17 387.53 176.73 384.89 178.93 394.75 180.87 403.52" style="fill:#e4897b"></polygon><path d="M172.83,404.51c-.11-.73,8.88-1.73,8.88-1.73s6.44,4.59,12,4.9,3.13,4-2.81,5.07l-14.67,2.59C172,416.09,174,412,172.83,404.51Z" style="fill:#263238"></path><path d="M186.12,404.28a13.8,13.8,0,0,1-3.22-.53l-.08,0h0l-.06-.06h0a.14.14,0,0,1,0-.06h0a.21.21,0,0,1,0-.11c0-.1.4-2.3,1.51-3a1.39,1.39,0,0,1,1.16-.17c.44.12.68.34.71.64.06.47-.49,1.05-1.15,1.57a3.73,3.73,0,0,1,2-.14,1,1,0,0,1,.58.52.89.89,0,0,1,0,1A1.94,1.94,0,0,1,186.12,404.28Zm-2.43-.82c1.4.32,3.12.53,3.48.11,0,0,.12-.15,0-.48a.5.5,0,0,0-.31-.27C186.13,402.57,184.64,403.06,183.69,403.46Zm1.31-2.74a.91.91,0,0,0-.5.15,4,4,0,0,0-1.19,2.18c1.23-.73,2.38-1.65,2.33-2.05,0-.13-.24-.21-.37-.24A.84.84,0,0,0,185,400.72Z" style="fill:#A9D8FF"></path><polygon points="178.96 394.95 171.66 395.92 169.19 387.62 176.74 384.93 178.96 394.95" style="opacity:0.2;isolation:isolate"></polygon><polygon points="137.09 406.33 130.43 406.33 129.33 397.06 128.34 388.55 136.25 387.26 136.7 397.36 137.09 406.33" style="fill:#e4897b"></polygon><path d="M129,405.9c0-.73,9-.15,9-.15s5.55,5.64,10.94,6.91,2.38,4.5-3.65,4.5h-14.9C126.15,417.16,128.82,413.51,129,405.9Z" style="fill:#263238"></path><path d="M142.79,408.05a11.13,11.13,0,0,1-3.74-1.14.12.12,0,0,1-.08-.06h0l0-.05a.28.28,0,0,1,0-.18c0-.09.79-2.2,2-2.71a1.38,1.38,0,0,1,1.16,0c.42.2.62.45.6.76,0,.48-.67.95-1.41,1.34a3.7,3.7,0,0,1,2,.23,1,1,0,0,1,.48.61.85.85,0,0,1-.22,1A1.27,1.27,0,0,1,142.79,408.05Zm-2.92-1.29c1.33.56,3,1.06,3.41.71,0,0,.15-.12.06-.48a.52.52,0,0,0-.26-.31C142.43,406.31,140.88,406.53,139.87,406.76Zm1.62-2.48a.94.94,0,0,0-.37.07,4,4,0,0,0-1.55,1.94c1.34-.51,2.63-1.21,2.65-1.61,0-.13-.2-.25-.32-.3A.91.91,0,0,0,141.49,404.28Z" style="fill:#A9D8FF"></path><polygon points="136.7 397.56 129.33 397.24 128.34 388.64 136.25 387.31 136.7 397.56" style="opacity:0.2;isolation:isolate"></polygon><path d="M179.58,389.75l-10.78,1.9c-10.88-27.1-18.62-49.73-24.08-68.51-2.95-10.13-5.24-19.14-7-27.13l.49,29.51v67h-11c-26.63-127-7.76-156-7.76-156l31.86-5.44A143.69,143.69,0,0,1,154,248.9l1.44,10.53,12.45,64.31Z" style="fill:#A9D8FF"></path><polygon points="167.11 390.32 180.48 385.89 180.3 391.57 169.24 395.1 167.11 390.32" style="fill:#263238"></polygon><polygon points="125.83 390.94 139.77 388.9 138.6 394.47 127.1 396.02 125.83 390.94" style="fill:#263238"></polygon><polygon points="119.5 231.75 119.5 236.51 151.99 234.01 151.99 228.39 119.5 231.75" style="fill:#263238"></polygon><rect x="137.6" y="229.86" width="7.13" height="5.41" transform="translate(-20.18 13.52) rotate(-5.12)" style="fill:#fff"></rect><rect x="129" y="229.79" width="1.61" height="8.22" transform="translate(-11.77 6.93) rotate(-2.93)" style="fill:#A9D8FF"></rect><rect x="148.85" y="227.61" width="1.61" height="8.22" transform="translate(-11.61 7.93) rotate(-2.92)" style="fill:#A9D8FF"></rect><path d="M152.13,229l-32.5,2.81a115.53,115.53,0,0,0-3.46-23.87c-.78-3.11-1.75-6.59-3-10.6-.67-2.15-1.41-4.46-2.24-6.94-.62-1.88-1.29-3.88-2-6a96.58,96.58,0,0,1,13.48-3.26,103.56,103.56,0,0,1,14.6-1.54c6.32-.05,13.58.66,13.58.66s1,.25,1.69,6.95C152.85,193.48,153.43,206.07,152.13,229Z" style="fill:#A9D8FF"></path><path d="M152.9,205.42c0,2.61-.05,5.48-.13,8.64,0,.81-.05,1.62-.07,2.47-.1,2.77-.22,5.74-.39,8.93,0,.81-.08,1.64-.13,2.47,0,.34,0,.68-.05,1l-32.5,2.8c0-.25,0-.51,0-.77s0-.7-.07-1.05-.07-.95-.1-1.43c-.22-3.06-.48-5.94-.91-9-.12-.79-.24-1.6-.37-2.43-.43-2.54-1-5.25-1.73-8.3-.08-.29-.15-.59-.23-.89-.12-.5-.25-1-.38-1.5-.61-2.3-1.31-4.82-2.16-7.59-.15-.49-.31-1-.46-1.52-.09-.27-.18-.56-.27-.84-.42-1.34-.88-2.75-1.36-4.23-.2-.61-.4-1.23-.61-1.86-.42-1.28-.87-2.62-1.34-4q-.33-1-.69-2a96.34,96.34,0,0,1,13.49-3.25A103.58,103.58,0,0,1,137,179.58c6.32-.05,13.59.66,13.59.66s.41.1.89,1.86a33.63,33.63,0,0,1,.79,5.09c.13,1.33.25,2.93.35,4.86.05.77.09,1.6.12,2.48.1,2.39.16,5.18.18,8.43C152.91,203.75,152.91,204.58,152.9,205.42Z" style="fill:#fff;opacity:0.6000000000000001"></path><path d="M147.06,182s-2.21,8.88-10.68,9.91c-10.12,1.24-19.92-7.53-19.92-7.53s-3.13.83-6.87,2q-.33-1-.69-2a96.34,96.34,0,0,1,13.49-3.25A103.58,103.58,0,0,1,137,179.58c6.32-.05,13.59.66,13.59.66s.41.1.89,1.86A11.39,11.39,0,0,0,147.06,182Z" style="fill:#A9D8FF"></path><path d="M152.72,194.53a193,193,0,0,0-39.09,4.28c-.15-.49-.31-1-.46-1.52-.09-.27-.18-.56-.27-.84a197.23,197.23,0,0,1,39.7-4.4C152.65,192.82,152.69,193.65,152.72,194.53Z" style="fill:#A9D8FF"></path><path d="M152.9,205.42a186.2,186.2,0,0,0-36.5,3.37c-.08-.29-.15-.59-.23-.89-.12-.5-.25-1-.38-1.5A190,190,0,0,1,152.9,203C152.91,203.75,152.91,204.58,152.9,205.42Z" style="fill:#A9D8FF"></path><path d="M152.77,214.06c0,.81-.05,1.62-.07,2.47a184,184,0,0,0-34.2,3c-.12-.79-.24-1.6-.37-2.43A187.44,187.44,0,0,1,152.77,214.06Z" style="fill:#A9D8FF"></path><path d="M152.31,225.46c0,.81-.08,1.64-.13,2.47a185.63,185.63,0,0,0-32.6,3.06c-.06-.84-.11-1.66-.17-2.48A191.14,191.14,0,0,1,152.31,225.46Z" style="fill:#A9D8FF"></path><path d="M139.24,224.26l-6.43,5.36a32.19,32.19,0,0,1-13.3.32c0-.48-.07-.95-.1-1.43-.22-3.06-.48-5.94-.91-9-.12-.79-.24-1.6-.37-2.43-.43-2.54-1-5.25-1.73-8.3-.08-.29-.15-.59-.23-.89-.12-.5-.25-1-.38-1.5-.61-2.3-1.31-4.82-2.16-7.59-.15-.49-.31-1-.46-1.52-.09-.27-.18-.56-.27-.84-.42-1.34-.88-2.75-1.36-4.23,1.19-1.88,2.64-2.6,4.25-1.51C124.74,196.78,124.83,216.18,139.24,224.26Z" style="opacity:0.2;isolation:isolate"></path><path d="M134.3,186.76c-8-1-10.41-4.45-10.41-4.45,5.08-4.79.86-13.1.86-13.1l9.64,1.8a29.58,29.58,0,0,0-.38,4.06c-.07,5.85,2.58,5.91,2.58,5.91C138.28,184.15,134.3,186.76,134.3,186.76Z" style="fill:#ebb376"></path><path d="M134.39,171a29.58,29.58,0,0,0-.38,4.06c-6.51,0-9.26-5.86-9.26-5.86Z" style="opacity:0.2;isolation:isolate"></path><path d="M141,160.66c2.87,0,4.19,4.76,1.76,6.26-3.13,1.93-5.36-3.12-3.24-5.62" style="fill:none;stroke:#A9D8FF;stroke-linecap:round;stroke-linejoin:round;stroke-width:0.5px"></path><path d="M129.06,144.05c8.38-.46,11.32,3.88,12.41,12.49,1.36,10.75-.61,18.54-11.22,16.81C115.85,171,115.14,144.82,129.06,144.05Z" style="fill:#ebb376"></path><path d="M136,156.36a17.72,17.72,0,0,0,2.63,3.35,2.32,2.32,0,0,1-2.16,1.06Z" style="fill:#d58745"></path><path d="M130.86,156c0,.69-.27,1.27-.73,1.31s-.88-.49-.93-1.18.27-1.27.73-1.31S130.81,155.27,130.86,156Z" style="fill:#263238"></path><path d="M129.74,154.83l1.45-.71S130.55,155.44,129.74,154.83Z" style="fill:#263238"></path><path d="M139.4,155.15c0,.69-.28,1.27-.74,1.31s-.87-.49-.92-1.18.27-1.28.73-1.31S139.34,154.46,139.4,155.15Z" style="fill:#263238"></path><path d="M138.28,154l1.45-.71S139.08,154.63,138.28,154Z" style="fill:#263238"></path><path d="M130.46,150.18a4.38,4.38,0,0,0-3.57,1.46" style="fill:none;stroke:#263238;stroke-linecap:round;stroke-linejoin:round;stroke-width:0.7246800000000001px"></path><path d="M136.53,149.49a3.91,3.91,0,0,1,3.38.51" style="fill:none;stroke:#263238;stroke-linecap:round;stroke-linejoin:round;stroke-width:0.7246800000000001px"></path><path d="M135.46,164.14a21.32,21.32,0,0,0-.82,3,4.87,4.87,0,0,1-.54,0c-2.46-.11-3.56-1-4-1.9a3,3,0,0,1-.32-1.46,2.71,2.71,0,0,1,.11-.85,11.51,11.51,0,0,0,4.76,1.22Z" style="fill:#263238"></path><path d="M134.62,164.09l-.26.86c-2.31-.11-3.92-.5-4.61-1.23a2.71,2.71,0,0,1,.11-.85A11.51,11.51,0,0,0,134.62,164.09Z" style="fill:#fff"></path><path d="M134.1,167.08c-2.46-.11-3.56-1-4-1.9a7.87,7.87,0,0,1,2.7.67A3,3,0,0,1,134.1,167.08Z" style="fill:#de5753"></path><path d="M120.67,158.68s3.55-7.1,2.66-12.38c0,0,16.24-7.7,18,9.11,0,0,.8-15-13.62-14.6s-13.21,21.53-5.43,27.4C122.26,168.21,118.49,163.12,120.67,158.68Z" style="fill:#263238"></path><path d="M119,158.57a16.78,16.78,0,0,1,2.63-10.32c3.31-5.16,13.54-6.62,18.26-2.24a13.26,13.26,0,0,0-7.73-5.95c-4.49-1.16-17-.87-14.23,17.92Z" style="fill:#A9D8FF"></path><path d="M122.14,160.37a3.69,3.69,0,0,0-4.14-3.14c-2.58.43-3.53,5.83,3,6.75C121.94,164.12,122.41,163.18,122.14,160.37Z" style="fill:#ebb376"></path><path d="M120.08,162.88c2.83.41,3.42,5.33.79,6.45-3.39,1.43-4.83-3.9-2.36-6.05" style="fill:none;stroke:#A9D8FF;stroke-linecap:round;stroke-linejoin:round;stroke-width:0.5px"></path><path d="M116.46,183.2s9.41,7.63,18.16,7.51,11.83-10,11.83-10S132.87,176.72,116.46,183.2Z" style="fill:#ebb376"></path><path d="M144.72,323.14c-2.95-10.13-5.24-19.14-7-27.13a249.22,249.22,0,0,1,2.05-28.3S144.44,304.21,144.72,323.14Z" style="opacity:0.2;isolation:isolate"></path><polygon points="225.63 168.21 213.16 210.53 210.02 210.15 223.52 163.91 225.63 168.21" style="fill:#263238"></polygon><polygon points="225.63 168.21 213.16 210.53 210.02 210.15 223.52 163.91 225.63 168.21" style="fill:#fff;opacity:0.1"></polygon><polygon points="154.15 217.71 210.02 210.15 209.66 215.56 155.38 224.53 154.15 217.71" style="fill:#263238"></polygon><polygon points="154.15 217.71 210.02 210.15 209.66 215.56 155.38 224.53 154.15 217.71" style="fill:#fff;opacity:0.4"></polygon><polygon points="210.02 210.15 257.79 230.04 255.41 236.99 209.66 215.56 210.02 210.15" style="fill:#263238"></polygon><polygon points="210.02 210.15 257.79 230.04 255.41 236.99 209.66 215.56 210.02 210.15" style="fill:#fff;opacity:0.2"></polygon><polygon points="155.38 224.53 209.66 215.56 255.41 236.99 199.47 254.84 155.38 224.53" style="fill:#263238"></polygon><path d="M240.53,230.13c-.05,4.5-6,9.52-24.42,12.16-26.91,3.85-45.55-8.89-45.77-13.55-.31-6.3,4.18-11.52,22.54-12.63,2.41-.15,4.85-.19,7.28-.16l.27.51c.17.34.36.7.56,1.08l.16.34.08.08,0,0c.44.86.88,1.77,1.29,2.67a1.17,1.17,0,0,0,0,.11,26.34,26.34,0,0,1,1.44,3.76,4.15,4.15,0,0,1,.2,1.11,4.4,4.4,0,0,0,.15,1.12,2.45,2.45,0,0,0,.34.78,1.76,1.76,0,0,0,1.21.85s2,.05,4.1.32a19.54,19.54,0,0,1,2.77.51c2.2.6,5.18.41,7.7.28l.08-.07a.75.75,0,0,1,.77-.16.48.48,0,0,1,.16.18h.38c2.72-.08,3.78-.55,5.45-.15,1.24.29,2.17.13,3,.3a2.87,2.87,0,0,1,.88.36,3.67,3.67,0,0,0,1.07.45,5.55,5.55,0,0,0,2.26.1,4.29,4.29,0,0,0,.89-.22,8,8,0,0,1,2.78-.29,3,3,0,0,0,.43,0A5.85,5.85,0,0,1,240.53,230.13Z" style="fill:#A9D8FF"></path><path d="M238.2,230c-.49,4-6.2,8.28-22.31,10.6-24.65,3.53-41.73-8.14-41.93-12.41-.28-5.77,3.83-10.56,20.64-11.57,1.93-.12,3.88-.16,5.83-.15.17.34.36.7.56,1.08l.16.34.08.08,0,0c.44.86.88,1.77,1.29,2.67a1.17,1.17,0,0,0,0,.11,26.34,26.34,0,0,1,1.44,3.76,4.15,4.15,0,0,1,.2,1.11,4.4,4.4,0,0,0,.15,1.12,2.45,2.45,0,0,0,.34.78,1.76,1.76,0,0,0,1.21.85s2,.05,4.1.32a19.54,19.54,0,0,1,2.77.51c2.2.6,5.18.41,7.7.28l.08-.07a.75.75,0,0,1,.77-.16.48.48,0,0,1,.16.18h.38c2.72-.08,3.78-.55,5.45-.15,1.24.29,2.17.13,3,.3a2.87,2.87,0,0,1,.88.36,3.67,3.67,0,0,0,1.07.45,5.55,5.55,0,0,0,2.26.1,4.29,4.29,0,0,0,.89-.22A8,8,0,0,1,238.2,230Z" style="fill:#fff;opacity:0.30000000000000004"></path><path d="M235.08,231.88a1.65,1.65,0,0,1-.55-1.38,5.55,5.55,0,0,1-2.26-.1,2.38,2.38,0,0,1,0,.26,1,1,0,0,1-.55.93.93.93,0,0,1-.2.1c-.85.44-1.66.38-2.47,1a3.69,3.69,0,0,1-.4.29,1.23,1.23,0,0,1-.52.2c-.53.05-1-.33-1.51-.45A3,3,0,0,0,225,233a2.66,2.66,0,0,1-1.41.24.89.89,0,0,1,.49-1.09,2.64,2.64,0,0,1,1.31-.16,2.37,2.37,0,0,0,1.3-.19c.16-.09.29-.21.45-.3a9.52,9.52,0,0,1,2.35-.77l.78-.21a1.1,1.1,0,0,1-.07-.65.65.65,0,0,1,.13-.28c-.86-.17-1.79,0-3-.3-1.67-.4-2.73.07-5.45.15h-.38a3.42,3.42,0,0,1,.42,2.14,2.59,2.59,0,0,1-1,.95,3.2,3.2,0,0,1-.74.24,4.83,4.83,0,0,1-2.27,0c-.17-.08-.32-.2-.49-.26a3.41,3.41,0,0,0-1.11,0,1.2,1.2,0,0,1-.95-.52.84.84,0,0,1,.09-1c.33-.3.84-.22,1.28-.32s.89-.43,1.37-.51,1.29.18,1.84-.11a3.05,3.05,0,0,0,.57-.45c-2.52.13-5.5.32-7.7-.28a19.54,19.54,0,0,0-2.77-.51.63.63,0,0,1-.08.23c-.2.33-.7.24-.89.52s0,.63-.06,1a.37.37,0,0,1,0,.17,3.18,3.18,0,0,1-1.44.86c-.3,0-.47-.36-.66-.6a1.39,1.39,0,0,0-.44-.36,2.16,2.16,0,0,0-.78-.25,7.29,7.29,0,0,0-1.4,0,.47.47,0,0,1-.33-.06.5.5,0,0,1-.13-.21,1.7,1.7,0,0,1-.17-.67.62.62,0,0,1,.32-.57c.17-.08.44-.1.45-.29s-.07-.16-.11-.24a.51.51,0,0,1,.3-.63l.16-.05a2.45,2.45,0,0,1-.34-.78,4.4,4.4,0,0,1-.15-1.12,4.15,4.15,0,0,0-.2-1.11,26.34,26.34,0,0,0-1.44-3.76,1.17,1.17,0,0,1,0-.11c-.41-.9-.85-1.81-1.29-2.67l0,0-.08-.08-.16-.34-.15.11a6.46,6.46,0,0,1-.75.51,5.56,5.56,0,0,1-1.16.51c-.79.24-1.18.2-1.39,0-.41-.31-.19-1.06-1-1.12-1.17-.07-2.21,1-3.48,1s-.89-.45-2-.77-.83,1.2-2.68,1.41-3.7-.78-3.84.49c-.12,1.07-3.06.28-3.52,1.08s.22,1.06-1.28,1.25S178,223.2,177,224.74s.79,1.58,1.11,2.45c.16.42-.14.79-.46,1.16s-.65.77-.51,1.23c.27.91,2.93,1.35,4.2,1.48s.42,1.28,1,2.64,3.31.19,3.35.91,2.12,2.08,4,2.19a3.16,3.16,0,0,0,1-.09,4.59,4.59,0,0,1,1.24-.16,4.49,4.49,0,0,1,3.34,1.74c.81,1.05,2.91-.27,3.59-.1s.72.86,1.52,1.32,4.43-1.19,5.19-1,3,1.37,4.26,1.52,3.26-1.84,4.3-1.68,4.29.54,5-.72,3.91-.8,5.3-.75,3,0,3.45-1.07,1.24-.9,2.57-1.34S236.43,233.38,235.08,231.88Zm-24.69.35c.05-.09.09-.19.13-.28a1.16,1.16,0,0,1,1.39-.41,5,5,0,0,1,1.33.83,1,1,0,0,0,.73.27c0,.34.06.67.1,1s0,.44-.22.44-.18-.11-.27-.15a.27.27,0,0,0-.13,0c-.28,0-.72.39-1,.44h0a3.68,3.68,0,0,1-2.22-.43c-.31-.13-.6-.28-.9-.41a.66.66,0,0,1-.32-.22.45.45,0,0,1,.19-.56,1.82,1.82,0,0,1,.61-.2A.91.91,0,0,0,210.39,232.23Zm-15.6-9.34c.27-.09.56,0,.83-.09.44-.12.67-.6,1-.93a1.89,1.89,0,0,1,1.88-.48c.57.18,1.06.64,1.66.66a2.23,2.23,0,0,1,.73,0c.47.17.55.83,1,1.11.08.06.19.11.21.21s-.09.23-.2.28a5.91,5.91,0,0,1-1.27.2,7.62,7.62,0,0,0-1.24.56,2.55,2.55,0,0,1-1,.09,4.76,4.76,0,0,1-1,.07.55.55,0,0,1-.46-.4c0-.11,0-.23,0-.35a.44.44,0,0,0-.13-.24,1.09,1.09,0,0,0-.76-.24,4.06,4.06,0,0,0-1,.13.53.53,0,0,1-.39,0C194.35,223.38,194.53,223,194.79,222.89Zm-10.58,3.33a.75.75,0,0,1,.09-.3,1.35,1.35,0,0,1,.79-.54l2.41-.89a1.52,1.52,0,0,1,.91-.14c.09,0,.2.08.21.17s-.07.18-.13.25a1.06,1.06,0,0,0-.22.33.6.6,0,0,0,.1.74c.08.06.18.1.26.16a.15.15,0,0,1,.09.06.56.56,0,0,1,0,.61,1.11,1.11,0,0,0-.12.3,3.81,3.81,0,0,0,.88,1.34l0,0a2.69,2.69,0,0,1,.57.26c.18.13.27.44.08.57a.48.48,0,0,1-.39,0,5.45,5.45,0,0,1-1.06-.25c-.27-.11-.5-.37-.77-.44s-.73.15-1.06-.12-.32-.66-.65-.69a.72.72,0,0,0-.29.06,1.39,1.39,0,0,1-1.78-1.53Zm4.42,7.27a.31.31,0,0,1-.21.06c-.61,0-1,.3-1.65,0a3.32,3.32,0,0,0-.89-.38.42.42,0,0,0-.16,0h-.38l-.24,0a2.7,2.7,0,0,1-1.1-.48.88.88,0,0,1-.42-.43c-.1-.3.13-.6.35-.83l.17-.18a1.87,1.87,0,0,1,.64-.45,2.05,2.05,0,0,1,.65-.1,7.7,7.7,0,0,1,3.08.54c.32.13.68.36.64.69s-.38.48-.45.78a.94.94,0,0,0,0,.29,1.87,1.87,0,0,1,0,.25A.28.28,0,0,1,188.63,233.49Zm6.09,2.5a.52.52,0,0,1-.43.42c-.91.17-1.48-.73-2.34-.77-.39,0-.81.12-1.15-.08a.66.66,0,0,1-.12-1,1.1,1.1,0,0,1,.85-.23,10,10,0,0,0,1.87.18c.26,0,.58-.08.71.14a1.06,1.06,0,0,1,.09.39c.09.35.53.56.52.9Zm2.68-5.31c-.18,0-.35.14-.53.18a1.05,1.05,0,0,1-1.13-.51c-.16-.31-.17-.7-.43-.92a1.74,1.74,0,0,1-.41-.28c-.18-.25,0-.61.29-.74a4.08,4.08,0,0,1,.87-.19,9.21,9.21,0,0,0,1.08-.46,1.14,1.14,0,0,1,1.12,0l.1.09a2.23,2.23,0,0,0,.44.43,1.83,1.83,0,0,0,.93,0,.77.77,0,0,1,.45.11,1.59,1.59,0,0,1,.36.45.5.5,0,0,0,.47.27.39.39,0,0,1-.15.51,4.41,4.41,0,0,1-.54.24,3.82,3.82,0,0,0-.68.45,1.64,1.64,0,0,1-.69.33C198.43,230.79,197.92,230.52,197.4,230.68Zm5.67,6.2a20,20,0,0,1-2.44-.13.91.91,0,0,1-.53-.2.77.77,0,0,1-.24-.53.76.76,0,0,1,.21-.53.69.69,0,0,1,.52-.24,19.84,19.84,0,0,0,2.44.13.75.75,0,0,1,0,1.5Zm2.84,1.3a3,3,0,0,1-.51-.25,4.7,4.7,0,0,0-.87-.36c-.11-.17,0-.39.17-.55l.88-1a1.51,1.51,0,0,1,.71-.52.76.76,0,0,1,.85.39c.07.14.1.3.16.44a1.6,1.6,0,0,0,1.12.72c.43.11.88.4.57.9a.46.46,0,0,1-.15.16h0a.91.91,0,0,1-.47.12,6.48,6.48,0,0,1-.65,0A7.22,7.22,0,0,1,205.91,238.18Zm8.44-.81a8.64,8.64,0,0,1-1.9.57h-.27c-.48-.07-1.2-.48-.87-1a.78.78,0,0,1,.52-.25l.6-.12a3.47,3.47,0,0,1,1-.1,1.79,1.79,0,0,1,1.06.46.31.31,0,0,1,.13.25C214.63,237.26,214.48,237.33,214.35,237.37Z" style="fill:#fff;opacity:0.30000000000000004"></path><path d="M194,220.94c0,.62-1.19,1.16-2.69,1.2s-2.74-.42-2.76-1,1.19-1.16,2.69-1.2S193.93,220.33,194,220.94Z" style="fill:#A9D8FF"></path><path d="M196.82,225.85c0,.62-1.19,1.15-2.7,1.2s-2.74-.43-2.75-1.05,1.18-1.15,2.69-1.19S196.8,225.23,196.82,225.85Z" style="fill:#A9D8FF"></path><path d="M204.33,226.76h-.12c-1.51,0-2.74-.43-2.76-1s1.11-1.12,2.53-1.19a4.15,4.15,0,0,1,.2,1.11A4.4,4.4,0,0,0,204.33,226.76Z" style="fill:#A9D8FF"></path><ellipse cx="210.21" cy="235.04" rx="2.73" ry="1.12" transform="translate(-6.56 6.03) rotate(-1.62)" style="fill:#A9D8FF"></ellipse><path d="M227.29,229.29c0,.62-1.19,1.15-2.69,1.19s-2.74-.42-2.76-1C224.56,229.36,225.62,228.89,227.29,229.29Z" style="fill:#A9D8FF"></path><path d="M188.52,232c0,.62-1.19,1.15-2.7,1.2s-2.74-.43-2.76-1,1.19-1.15,2.7-1.19S188.5,231.38,188.52,232Z" style="fill:#A9D8FF"></path><path d="M221.48,235.84c0,.62-1.19,1.16-2.7,1.2s-2.74-.43-2.76-1,1.19-1.16,2.7-1.2S221.46,235.22,221.48,235.84Z" style="fill:#A9D8FF"></path><path d="M202.54,220.77h-.22l.17-.12A1.17,1.17,0,0,0,202.54,220.77Z" style="fill:#A9D8FF"></path><polygon points="193.63 233.86 191.56 232.75 194.27 232.19 196.35 232.62 193.63 233.86" style="fill:#A9D8FF"></polygon><polygon points="197.92 237.25 198.95 236.48 202.32 237.9 202.34 238.68 197.92 237.25" style="fill:#A9D8FF"></polygon><path d="M203.46,231.58a2.54,2.54,0,0,1,2.84-1.1c1.87.54,2.43-.19,2.43-.19l.89.54s-1.2,1.64-2.54,1a2.87,2.87,0,0,0-2.66.24Z" style="fill:#A9D8FF"></path><path d="M179.94,226.85l1.79-.57s1.22,1.94,2,2a12.16,12.16,0,0,0,1.94-.06l-1,1.72S180.05,228.89,179.94,226.85Z" style="fill:#A9D8FF"></path><polygon points="228.36 232.88 230.46 231.33 232.15 231.89 229.76 233.37 228.36 232.88" style="fill:#A9D8FF"></polygon><polygon points="216.59 227.3 218.7 225.75 220.39 226.3 218 227.78 216.59 227.3" style="fill:#A9D8FF"></polygon><path d="M216.76,231.55a1.21,1.21,0,0,1,1.86-.4c1.26.8,1.71,0,1.71,0l1,.46a2.57,2.57,0,0,1-1.76.71,7.56,7.56,0,0,0-2,.07Z" style="fill:#A9D8FF"></path><path d="M201.23,218l0,0-.59.63a1.18,1.18,0,0,0-.52-.46c-.28-.12-.68-.07-1.16.51-1,1.24-3,.08-3,.08l.64-.66a1.09,1.09,0,0,0,.94.62.94.94,0,0,0,.34-.07c.76-.28,2-1.46,3-1a.84.84,0,0,1,.31.23Z" style="fill:#A9D8FF"></path><polygon points="184.42 221.21 186.18 220.64 186.25 222.97 184.7 223.01 184.42 221.21" style="fill:#A9D8FF"></polygon><polygon points="178.04 223.2 180.57 223.13 181.17 223.8 178.96 224.69 178.04 223.2" style="fill:#A9D8FF"></polygon><polygon points="176.56 227.54 177.67 227.51 177.73 229.57 177.18 229.58 176.56 227.54" style="fill:#A9D8FF"></polygon><polygon points="188.94 236.54 191.64 235.86 192.57 237.78 188.94 236.54" style="fill:#A9D8FF"></polygon><path d="M197.69,229c-.84,0,.41-1.45,1-1.05a2.53,2.53,0,0,0,1.15.41s0,1-.41,1.19S198.17,229,197.69,229Z" style="fill:#A9D8FF"></path><path d="M197.25,223.24s.2-1.57,1.2-1.3,2,1.07,1.27,1.4S197,224,197.25,223.24Z" style="fill:#A9D8FF"></path><path d="M206.56,222.27s.2-1.57,1.19-1.31,2,1.07,1.27,1.41S206.35,223,206.56,222.27Z" style="fill:#A9D8FF"></path><polygon points="186.81 225.71 188.61 224.96 188.65 226.23 186.81 225.71" style="fill:#A9D8FF"></polygon><polygon points="200.75 234.19 200.72 232.85 203.56 235.23 200.75 234.19" style="fill:#A9D8FF"></polygon><polygon points="225.9 227.93 225.87 226.59 228.71 228.97 225.9 227.93" style="fill:#A9D8FF"></polygon><polygon points="207.28 238.95 207.27 238.54 209.82 237.89 209.85 238.88 207.28 238.95" style="fill:#A9D8FF"></polygon><polygon points="213.36 223.25 213.35 222.84 215.9 222.18 215.93 223.18 213.36 223.25" style="fill:#A9D8FF"></polygon><polygon points="224.5 235.9 224.48 234.93 226.78 234.86 226.03 235.86 224.5 235.9" style="fill:#A9D8FF"></polygon><polygon points="208.5 227.34 208.47 226.37 210.78 226.3 210.02 227.3 208.5 227.34" style="fill:#A9D8FF"></polygon><path d="M201.15,217.88l.08.08,0,0Z" style="fill:#fff"></path><path d="M221.46,229.45l-1,.05.08-.07a.75.75,0,0,1,.77-.16A.48.48,0,0,1,221.46,229.45Z" style="fill:#fff"></path><polygon points="199.14 243.23 257.79 230.04 255.41 236.99 199.47 254.84 199.14 243.23" style="fill:#263238"></polygon><polygon points="199.14 243.23 257.79 230.04 255.41 236.99 199.47 254.84 199.14 243.23" style="fill:#fff;opacity:0.4"></polygon><polygon points="155.38 224.53 154.15 217.71 199.14 243.23 199.47 254.84 155.38 224.53" style="fill:#263238"></polygon><polygon points="155.38 224.53 154.15 217.71 199.14 243.23 199.47 254.84 155.38 224.53" style="fill:#fff;opacity:0.2"></polygon><polygon points="154.15 217.71 166.9 164.71 223.52 163.91 210.02 210.15 154.15 217.71" style="fill:#263238"></polygon><polygon points="154.15 217.71 166.9 164.71 223.52 163.91 210.02 210.15 154.15 217.71" style="fill:#fff;opacity:0.2"></polygon><polygon points="166.9 164.71 170.32 169.19 158.34 218.63 154.15 217.71 166.9 164.71" style="fill:#263238"></polygon><polygon points="166.9 164.71 170.32 169.19 158.34 218.63 154.15 217.71 166.9 164.71" style="fill:#fff;opacity:0.30000000000000004"></polygon><polygon points="166.9 164.71 170.32 169.19 225.63 168.21 223.52 163.91 166.9 164.71" style="fill:#263238"></polygon><polygon points="166.9 164.71 170.32 169.19 225.63 168.21 223.52 163.91 166.9 164.71" style="fill:#fff;opacity:0.4"></polygon><path d="M159.93,229.36l9.17,2.35a8.47,8.47,0,0,1,2.13-1.61c.73-.22,7.79,2.17,8.35,2.79s2.77,6.45,2.77,8.15-9.35-.11-10.13-.83a33.41,33.41,0,0,0-3-2.15l-11.53-2.45Z" style="fill:#ebb376"></path><path d="M163.17,228.72l-.89,9.34s-3.1-.44-7.7-1.36c-.77-.15-1.59-.32-2.43-.51-2.73-.58-5.82-1.3-9-2.15l-2.38-.67a103,103,0,0,1-10.83-3.75c-.78-.34-1.56-.68-2.31-1.05a31.11,31.11,0,0,1-8.33-5.37c-.13-.12-.26-.25-.38-.38a15.39,15.39,0,0,1-1.25-1.45,42.07,42.07,0,0,1-4.86-8.22c-.35-.73-.69-1.48-1-2.25a71.75,71.75,0,0,1-3.37-9.9c-.22-.8-.41-1.61-.58-2.4a29.71,29.71,0,0,1-.79-10.28,8.73,8.73,0,0,1,.7-2.45,4.41,4.41,0,0,1,1.15-1.5s4.31-1.05,8.31,5.93a30.67,30.67,0,0,1,2.2,4.87l.26.72c.39,1.11.85,2.43,1.37,3.85.38,1,.78,2.08,1.2,3.17.64,1.67,1.35,3.37,2.1,5,.37.8.74,1.58,1.12,2.33a26.74,26.74,0,0,0,2.64,4.25,12,12,0,0,0,.85,1c.3.3.62.6,1,.88a30.46,30.46,0,0,0,6,3.95c.79.42,1.6.81,2.44,1.19a64.58,64.58,0,0,0,6.35,2.5c.78.29,1.58.55,2.38.79,2.25.72,4.57,1.37,6.92,1.95.79.21,1.59.39,2.4.58C158.64,227.83,160.93,228.31,163.17,228.72Z" style="fill:#A9D8FF"></path><path d="M163.17,228.72l-.89,9.34s-3.1-.44-7.7-1.36c-.77-.15-1.59-.32-2.43-.51-2.73-.58-5.82-1.3-9-2.15l-2.38-.67a103,103,0,0,1-10.83-3.75c-.78-.34-1.56-.68-2.31-1.05a31.11,31.11,0,0,1-8.33-5.37c-.13-.12-.26-.25-.38-.38a15.39,15.39,0,0,1-1.25-1.45,42.07,42.07,0,0,1-4.86-8.22c-.35-.73-.69-1.48-1-2.25a71.75,71.75,0,0,1-3.37-9.9c-.22-.8-.41-1.61-.58-2.4a29.71,29.71,0,0,1-.79-10.28,8.73,8.73,0,0,1,.7-2.45,4.41,4.41,0,0,1,1.15-1.5s4.31-1.05,8.31,5.93a30.67,30.67,0,0,1,2.2,4.87l.26.72c.39,1.11.85,2.43,1.37,3.85.38,1,.78,2.08,1.2,3.17.64,1.67,1.35,3.37,2.1,5,.37.8.74,1.58,1.12,2.33a26.74,26.74,0,0,0,2.64,4.25,12,12,0,0,0,.85,1c.3.3.62.6,1,.88a30.46,30.46,0,0,0,6,3.95c.79.42,1.6.81,2.44,1.19a64.58,64.58,0,0,0,6.35,2.5c.78.29,1.58.55,2.38.79,2.25.72,4.57,1.37,6.92,1.95.79.21,1.59.39,2.4.58C158.64,227.83,160.93,228.31,163.17,228.72Z" style="fill:#fff;opacity:0.5"></path><path d="M119.67,195.89c-4.75-5.07-9.16-7-12.62-7.57a8.73,8.73,0,0,1,.7-2.45,21.8,21.8,0,0,1,9.46,4.43,30.67,30.67,0,0,1,2.2,4.87Z" style="fill:#A9D8FF"></path><path d="M122.24,202.91A23.33,23.33,0,0,0,108.42,201c-.22-.8-.41-1.61-.58-2.4a26.56,26.56,0,0,1,13.2,1.14C121.42,200.76,121.82,201.82,122.24,202.91Z" style="fill:#A9D8FF"></path><path d="M125.46,210.24a74.55,74.55,0,0,0-12.66,2.91c-.35-.73-.69-1.48-1-2.25a73,73,0,0,1,12.55-3C124.71,208.71,125.08,209.49,125.46,210.24Z" style="fill:#A9D8FF"></path><path d="M129.9,216.34a52.33,52.33,0,0,0-10.61,6.86c-.13-.12-.26-.25-.38-.38a15.39,15.39,0,0,1-1.25-1.45,52.05,52.05,0,0,1,10.44-6.88,12,12,0,0,0,.85,1C129.25,215.76,129.57,216.06,129.9,216.34Z" style="fill:#A9D8FF"></path><path d="M138.31,221.48a55.89,55.89,0,0,0-8.38,8.14c-.78-.34-1.56-.68-2.31-1.05a53.51,53.51,0,0,1,8.25-8.28C136.66,220.71,137.47,221.1,138.31,221.48Z" style="fill:#A9D8FF"></path><path d="M147,224.77a75.69,75.69,0,0,0-3.9,9.27l-2.38-.67a75.22,75.22,0,0,1,3.9-9.39C145.44,224.27,146.24,224.53,147,224.77Z" style="fill:#A9D8FF"></path><path d="M156.36,227.3a61.55,61.55,0,0,0-1.78,9.4c-.77-.15-1.59-.32-2.43-.51a64.59,64.59,0,0,1,1.81-9.47C154.75,226.93,155.55,227.11,156.36,227.3Z" style="fill:#A9D8FF"></path></g><g id="freepik--character-2--inject-40"><g id="freepik--group--inject-40"><polygon points="332.88 408.87 324.77 408.87 324.1 390.09 332.21 390.09 332.88 408.87" style="fill:#b97964"></polygon><path d="M323.64,407.93h9.85a.7.7,0,0,1,.69.56l1.6,7.22a1.2,1.2,0,0,1-.92,1.42l-.26,0c-3.19,0-5.51-.25-9.51-.25-2.47,0-9.9.26-13.31.26s-3.85-3.36-2.45-3.67c6.25-1.36,10.95-3.25,12.95-5A2,2,0,0,1,323.64,407.93Z" style="fill:#263238"></path><path d="M321,409.35a2.41,2.41,0,0,1-1.56-.41,1.15,1.15,0,0,1-.4-1,.6.6,0,0,1,.33-.54c.9-.46,3.52,1.15,3.81,1.33a.18.18,0,0,1,.09.19.19.19,0,0,1-.14.16A9.6,9.6,0,0,1,321,409.35Zm-1.2-1.68a.51.51,0,0,0-.25.05c-.05,0-.12.08-.13.23a.81.81,0,0,0,.26.69,4,4,0,0,0,2.89.15A7.85,7.85,0,0,0,319.76,407.67Z" style="fill:#A9D8FF"></path><path d="M323,409.06h-.09c-.83-.45-2.45-2.23-2.29-3.09a.62.62,0,0,1,.62-.5,1.06,1.06,0,0,1,.82.24c.93.77,1.13,3.1,1.14,3.21a.21.21,0,0,1-.09.18A.17.17,0,0,1,323,409.06Zm-1.62-3.29h-.1c-.24,0-.27.15-.28.2-.1.53.93,1.88,1.77,2.51a4.59,4.59,0,0,0-1-2.54A.7.7,0,0,0,321.41,405.77Z" style="fill:#A9D8FF"></path><polygon points="332.21 390.1 324.1 390.1 324.45 399.78 332.56 399.78 332.21 390.1" style="opacity:0.2;isolation:isolate"></polygon><polygon points="291.12 409.48 282.76 410.36 281.19 392.32 289.55 391.43 291.12 409.48" style="fill:#b97964"></polygon><path d="M281.87,407.67h9.85a.72.72,0,0,1,.69.56l1.6,7.22a1.2,1.2,0,0,1-.92,1.42,1.23,1.23,0,0,1-.27,0c-3.18-.05-5.5-.24-9.51-.24-2.46,0-9.9.25-13.3.25s-3.85-3.36-2.46-3.67c6.25-1.36,11-3.25,13-5A2,2,0,0,1,281.87,407.67Z" style="fill:#263238"></path><path d="M279.19,409.1a2.48,2.48,0,0,1-1.56-.42,1.15,1.15,0,0,1-.4-1,.55.55,0,0,1,.33-.53c.9-.47,3.52,1.14,3.81,1.33a.18.18,0,0,1,.09.18.2.2,0,0,1-.15.17A10.73,10.73,0,0,1,279.19,409.1ZM278,407.41a.57.57,0,0,0-.25.06c-.05,0-.11.07-.12.22a.78.78,0,0,0,.26.69,3.91,3.91,0,0,0,2.89.15A8,8,0,0,0,278,407.41Z" style="fill:#A9D8FF"></path><path d="M281.26,408.81h-.09c-.84-.46-2.46-2.24-2.29-3.1a.63.63,0,0,1,.62-.5,1,1,0,0,1,.81.24c.94.77,1.14,3.1,1.15,3.21a.24.24,0,0,1-.09.18A.2.2,0,0,1,281.26,408.81Zm-1.63-3.29h-.09c-.25,0-.27.14-.28.19-.1.53.93,1.88,1.76,2.51a4.53,4.53,0,0,0-.95-2.54A.7.7,0,0,0,279.63,405.52Z" style="fill:#A9D8FF"></path><polygon points="289.55 391.43 281.19 392.32 282 401.62 290.37 400.74 289.55 391.43" style="opacity:0.2;isolation:isolate"></polygon><path d="M328.87,225.34h-43c-4.09,22.34-16.9,101.41-7.71,171.86l14.57-1.8s-1.35-93.53,11.51-128.11c1.48,18.51,3.24,38.2,4.77,48.67,3.74,25.79,11.75,82.14,11.75,82.14h14.84s-3-53.94-4.44-79.28C329.59,291.31,328.93,231,328.87,225.34Z" style="fill:#A9D8FF"></path><path d="M328.87,225.34h-43c-4.09,22.34-16.9,101.41-7.71,171.86l14.57-1.8s-1.35-93.53,11.51-128.11c1.48,18.51,3.24,38.2,4.77,48.67,3.74,25.79,11.75,82.14,11.75,82.14h14.84s-3-53.94-4.44-79.28C329.59,291.31,328.93,231,328.87,225.34Z" style="fill:#fff;opacity:0.4;isolation:isolate"></path><path d="M269,187.79s-10.42,32.84-17.54,35-25.24-24.95-25.24-24.95-16.23-.16-17-1.27S213.44,184,214.63,184s15.32,5.32,15.87,6.21,16.76,16.4,17.55,16,6.93-20,6.93-20Z" style="fill:#b97964"></path><path d="M274.87,184l-1.27,2.34-5.93,11-1.23,2.26-16.63-5.78s6.91-25.82,9.31-28.46Z" style="fill:#263238"></path><path d="M228.16,190.08a2.72,2.72,0,0,1,.46,1.58c0,1-.89,2.55-2.14,2.63s-2.37-.84-4.09,0-2.53,1.63-3.95,2a6.48,6.48,0,0,0-2.67,1.48,3.83,3.83,0,0,1-2.94.87,35.3,35.3,0,0,1-3.82,0c-.69-.11-3.06,1.66-3.06,1.66s-1-1.87,2.3-5.83S228.16,190.08,228.16,190.08Z" style="fill:#A9D8FF"></path><path d="M228.16,190.08l-.23.47c-.2.42-.42.9-.67,1.4-.06.15-.14.31-.21.46-.48,1-1.32,1-2.23.88l-.26,0a5.2,5.2,0,0,0-2-.15,8.24,8.24,0,0,0-2.27,1,1.37,1.37,0,0,0,.2.22l-.39-.1c-1,.59-2.1,1.37-3.42,2.27a8.78,8.78,0,0,1-1.48.82l-.36.15a8.49,8.49,0,0,1-3.15.53,18.7,18.7,0,0,1-2.43-.21c-2.61-.36-3.29,2.5-3.29,2.5a1.13,1.13,0,0,1-.71-.77,2.13,2.13,0,0,1-.09-1,3.77,3.77,0,0,0-.14-1.16,19.26,19.26,0,0,0-.68-2.09,26.84,26.84,0,0,1-1.31-4,11.6,11.6,0,0,1,.61-3.68c.05-.23.12-.45.18-.68s.1-.32.14-.47A106.44,106.44,0,0,1,228.16,190.08Z" style="fill:#A9D8FF"></path><path d="M227.93,190.55c-.2.42-.42.9-.67,1.4-.06.15-.14.31-.21.46-.48,1-1.32,1-2.23.88l-.26,0a5.2,5.2,0,0,0-2-.15,8.24,8.24,0,0,0-2.27,1,1.37,1.37,0,0,0,.2.22l-.39-.1c-1,.59-2.1,1.37-3.42,2.27a8.78,8.78,0,0,1-1.48.82l-.36.15a8.49,8.49,0,0,1-3.15.53,18.7,18.7,0,0,1-2.43-.21c-2.61-.36-3.29,2.5-3.29,2.5a1.13,1.13,0,0,1-.71-.77,2.13,2.13,0,0,1-.09-1,3.77,3.77,0,0,0-.14-1.16,19.26,19.26,0,0,0-.68-2.09,26.84,26.84,0,0,1-1.31-4,11.6,11.6,0,0,1,.61-3.68c.05-.23.12-.45.18-.68A97.48,97.48,0,0,1,227.93,190.55Z" style="fill:#fff;opacity:0.30000000000000004"></path><path d="M224.11,190.66c-1-.91-2.08-.29-3.7-.43-1.19-.1-1.36,0-1.77-.41-.15-.14-.32-.33-.59-.61-1-1.06-1.9-.35-3.45-.2s-1.82-.35-3.23-.57a4.25,4.25,0,0,0-3.18.22c-1.41.61-1.73.27-3.69-.72a3,3,0,0,0-.87-.31,11.6,11.6,0,0,0-.61,3.68,26.84,26.84,0,0,0,1.31,4,19.26,19.26,0,0,1,.68,2.09,3.77,3.77,0,0,1,.14,1.16,2.13,2.13,0,0,0,.09,1,.18.18,0,0,1,.09-.07c.17-.08.44-.11.45-.3s-.07-.16-.11-.25a.52.52,0,0,1,.31-.63,1.75,1.75,0,0,1,.76-.1,1.1,1.1,0,0,0,.73-.23c.18-.18.23-.46.42-.63a1.11,1.11,0,0,1,1-.15l1.93.26a1.27,1.27,0,0,1,.55.17,2,2,0,0,1,.35.41,8.49,8.49,0,0,0,3.15-.53l.36-.15a8.78,8.78,0,0,0,1.48-.82c1.32-.9,2.44-1.68,3.42-2.27l.39.1a1.37,1.37,0,0,1-.2-.22c-.28-.41-.31-.85-.94-1.1l-.13,0a3.21,3.21,0,0,0-2.12,0,2.21,2.21,0,0,0-1.09.36c-.22.2-.45.46-.75.46a1,1,0,0,1-.39-.1l-.71-.27c-.11,0-.25-.12-.24-.24s.25-.18.42-.17a1.51,1.51,0,0,0,1.05-.46c.86-.8,1.52-1.48,2.85-1.37a5.6,5.6,0,0,1,2.45,1l.19.11c.22.14.44.26.66.38l.21.1h0l.25.06h.39c.71-.14,1.08-.34,1.74,0a2,2,0,0,1,.42.29,1.55,1.55,0,0,1,.28.24c.91.15,1.75.14,2.23-.88.07-.15.15-.31.21-.46A3.83,3.83,0,0,1,224.11,190.66Zm-18.06-.25a3.67,3.67,0,0,1,1.58,0,2.62,2.62,0,0,1,.62.19c.31.17.55.49.9.56a2.25,2.25,0,0,1,.58.07.45.45,0,0,1,.15.67.71.71,0,0,1-.72.16,3.93,3.93,0,0,0-.75-.19,7.14,7.14,0,0,1-2.06-.15,1.1,1.1,0,0,1-.66-.44.85.85,0,0,1-.09-.24c-.07-.34.13-.52.44-.61Zm4.88,4.23c-.16.14-.28.33-.44.46a1.78,1.78,0,0,1-1.09.27,3.05,3.05,0,0,1-1.56-.22c-.17-.09-.32-.21-.49-.29s-.63-.16-.94-.28a.77.77,0,0,1-.57-.71,1.12,1.12,0,0,1,.22-.47c.29-.4.69-.85,1.18-.77a1.66,1.66,0,0,1,.46.19,4.17,4.17,0,0,0,1.81.38,12.7,12.7,0,0,1,1.7.4.41.41,0,0,1,.31.51C211.44,194.37,211.14,194.47,210.93,194.64Z" style="fill:#fff;opacity:0.30000000000000004"></path><path d="M208.4,196.17c0,.63-1.2,1.17-2.73,1.21a4.75,4.75,0,0,1-.66,0,19.26,19.26,0,0,0-.68-2.09,6.12,6.12,0,0,1,1.27-.16C207.13,195.07,208.39,195.54,208.4,196.17Z" style="fill:#A9D8FF"></path><path d="M224.57,193.18a.22.22,0,0,1,0,.08,5.2,5.2,0,0,0-2-.15,8.24,8.24,0,0,0-2.27,1,1.37,1.37,0,0,0,.2.22l-.39-.1c-.63-.19-1-.5-1.05-.85a.59.59,0,0,1,.17-.41,3,3,0,0,1,1.66-.72,6.37,6.37,0,0,1,.91-.09c1.42,0,2.6.37,2.77.93A.31.31,0,0,1,224.57,193.18Z" style="fill:#A9D8FF"></path><polygon points="205.46 190.04 207.36 191.2 203.75 191.3 205.46 190.04" style="fill:#A9D8FF"></polygon><polygon points="212.69 192.38 212.16 191.06 214.11 190.94 214.77 192.32 212.69 192.38" style="fill:#A9D8FF"></polygon><path d="M215.18,197.28l-.36.15.08-.31Z" style="fill:#A9D8FF"></path><path d="M209.84,189.44c-1.1-.49.07-1.05,1-.85S211.74,190.29,209.84,189.44Z" style="fill:#A9D8FF"></path><polygon points="211.46 194.94 213.54 194.63 213.22 195.87 211.46 194.94" style="fill:#A9D8FF"></polygon><polygon points="218.63 189.48 220.41 190.23 218.65 190.28 218.63 189.48" style="fill:#A9D8FF"></polygon><path d="M224.11,196.1a3.75,3.75,0,0,1-.39-.09l.19-.12A1.31,1.31,0,0,0,224.11,196.1Z" style="fill:#b97964"></path><path d="M273.6,186.34l-5.93,11c-3.66-7.2-2.6-17.05-2.6-17.05Z" style="opacity:0.2;isolation:isolate"></path><polygon points="276.45 400.6 294.49 397.92 293.94 392.92 275.18 395.38 276.45 400.6" style="fill:#A9D8FF"></polygon><polygon points="318.94 398.22 336.43 398.22 336.43 393 318.28 392.65 318.94 398.22" style="fill:#A9D8FF"></polygon><path d="M259.12,165.32a35.31,35.31,0,0,1,25.05-12.16c16.3-.76,21.42.86,27.38,6.18,8.7,7.77,19.52,74.72,19.52,74.72a151.33,151.33,0,0,1-48.86,5.32s-.19-18.59-6.07-31.11A348,348,0,0,1,259.12,165.32Z" style="fill:#263238"></path><path d="M330.51,230.7c-.52-3.07-1.39-8-2.5-13.94-.78-4.11-1.67-8.69-2.65-13.41-.39-1.87-.79-3.77-1.2-5.67-.27-1.24-.55-2.49-.83-3.73-1-4.38-2-8.71-3.11-12.77-.24-.9-.48-1.79-.72-2.66a101,101,0,0,0-5-14.52,14.78,14.78,0,0,0-3-4.66,25.68,25.68,0,0,0-4.28-3.19c-4.75-2.77-10.68-3.57-23.1-3l-.54,0a35.6,35.6,0,0,0-22.75,10.19,21.34,21.34,0,0,0-1.76,1.93s.33,1.11,1,3.14c.51,1.53,1.21,3.59,2.1,6.09.8,2.25,1.76,4.87,2.88,7.79,1.56,4.07,3.43,8.73,5.61,13.82,1,2.42,2.15,5,3.33,7.55q1,2.23,2.1,4.55a51.41,51.41,0,0,1,3.11,8.85c.33,1.29.63,2.58.89,3.86.49,2.38.87,4.72,1.15,6.89s.48,4,.61,5.71c.29,3.52.31,5.81.31,5.81a151.33,151.33,0,0,0,48.86-5.32S330.87,232.84,330.51,230.7Zm-39.36-75.31c-.26,1.05-2.89,4.28-6.51,6.67a16.23,16.23,0,0,1-6.35,2.65c-6.54,1-9.09-3.21-9.27-4.88s6.52-5.18,10.94-5.77c1-.13,2.11-.22,3.26-.26C287.21,153.68,291.46,154.15,291.15,155.39Z" style="fill:#fff;opacity:0.30000000000000004;isolation:isolate"></path><g style="opacity:0.2;isolation:isolate"><path d="M320.22,181.18c-1.9.2-4.46-.62-6.58-.93-3-.44-7.45,1.63-11,2.19s-4.75-1.35-7.54-2.19-6.31,1.23-10,2.68-2.67-1.05-2.67-2.69,4.75-2.72,8.72-3.78,2.95-2.1,3.93-6.46c.84-3.78,15.52-5.58,19.43-6A112.59,112.59,0,0,1,320.22,181.18Z"></path><path d="M277.31,177.6c-1.58-.08-3.27-.23-4.9,1.43s1.83,3.79-2.79,3.41a25.87,25.87,0,0,0-4.52-.1c-1.12-2.92-2.08-5.54-2.88-7.79,4,0,8.29.48,8.29.48a51.28,51.28,0,0,0,5.95-.47c2.23-.4,4.56-1.84,5.87-.92S278.89,177.67,277.31,177.6Z"></path><path d="M301.49,197.52c-2.23.18-7-.58-8.56,0s-2.77.13-5.53,2.23-4,4.1-7.44,3.7a17.67,17.67,0,0,0-5.92.26c-1.18-2.6-2.29-5.13-3.33-7.55,2.92-.16,6.74-.48,7.58-1.06,1.39-1,4.15-3,6.83-2.49s8.21,1.91,9,2a9.24,9.24,0,0,0,5.08-.64c3-1,3.41-1.14,5-.79S303.72,197.33,301.49,197.52Z"></path><path d="M325.36,203.35a2.53,2.53,0,0,0-1,.1,6,6,0,0,1-3.75,0,52.26,52.26,0,0,0-8.11,0c-3.56.21-4.95,1.17-8.32,1.27s-3.35-.69-2.71-2.67,2.72,0,3.72,0a10.68,10.68,0,0,0,6.32-2.3c2.17-1.9,4.74-1.65,6.4-3.65,1-1.19,2.54-1.94,5.4-2.15C324,197.09,324.72,200.25,325.36,203.35Z"></path><path d="M311.13,217.71a13.59,13.59,0,0,1-6.37,3.07,84.52,84.52,0,0,1-11.23,1.05s-7,1.17-9.36,0a11.9,11.9,0,0,0-4-.85c-.26-1.28-.56-2.57-.89-3.86,2.66.46,6.24.88,8.34.23a46.35,46.35,0,0,0,7.51-3.42c6.93-4,8.91-4.21,11.48-3.39s6.09,1.79,6.7,1.5,1.56.88,4.65,0,3.49-3.51,4.28-1.5S311.13,217.71,311.13,217.71Z"></path><path d="M330.51,230.7a21.9,21.9,0,0,1-6.92,2.23c-6.72,1-7.51,1.51-13.64,1.93a32.38,32.38,0,0,1-11-1.16s-2.24-.1-3-1.63c-1.36-2.64,4.86-3.43,8.86-4.56a21.82,21.82,0,0,0,6.57-2.68c1.78-1,3.56-2.12,3.56-2.12l5.34-2.07s2.87-3.3,5.34-3.5a21.74,21.74,0,0,0,2.44-.38C329.12,222.68,330,227.63,330.51,230.7Z"></path><path d="M283.63,231.47a17.77,17.77,0,0,0-1.73,2.1c-.13-1.66-.33-3.61-.61-5.71a26.38,26.38,0,0,1,4.08,0c2.62.29,3-1.07,3.59-.09S285.38,229.77,283.63,231.47Z"></path><path d="M307.27,156.15a7.2,7.2,0,0,1-3.91,1.41c-6.87.78-5.68-.34-9.24,1.21s-.18,1.73-5.16,2.72a31.05,31.05,0,0,1-4.32.57c3.62-2.39,6.25-5.62,6.51-6.67.31-1.24-3.94-1.71-7.93-1.59l.41-.6.54,0C296.59,152.58,302.52,153.38,307.27,156.15Z"></path><path d="M261.49,168.13a2.12,2.12,0,0,0-1.37.33c-.67-2-1-3.14-1-3.14a21.34,21.34,0,0,1,1.76-1.93,15.22,15.22,0,0,1,3.05.52,43.54,43.54,0,0,0,4.88,1C269.4,165.06,262.49,168.23,261.49,168.13Z"></path></g><path d="M304.2,267.3a115.9,115.9,0,0,0-4.81,18.62C298.19,269.45,303,252,303,252Z" style="opacity:0.2;isolation:isolate"></path><path d="M289,155.43c-1.76,5-8.32,7.33-11.76,7.62a5.85,5.85,0,0,1-6.24-3.38s3.93-1.95,3.54-4.16a10.49,10.49,0,0,0-1.62-3.74,20.24,20.24,0,0,0-1.34-1.85l6.29-13.5C279.24,142.31,283.54,153.54,289,155.43Z" style="fill:#b97964"></path><path d="M278.08,142.69c3,6.54-1.23,11.09-3.58,12.82a10.49,10.49,0,0,0-1.62-3.74Z" style="opacity:0.2;isolation:isolate"></path><path d="M257,125.16s-2,11.12,3.79,15.59,6.4-16.33,6.4-16.33Z" style="fill:#263238"></path><path d="M277.72,150.11a10.15,10.15,0,0,1-11.75,3.6,11.31,11.31,0,0,1-6.29-5.43c-.19-.35-.35-.71-.51-1.09-2.72-6.91-3.31-18.87,4-23.14a11,11,0,0,1,16.55,8.75C280.41,140.81,281.18,145.48,277.72,150.11Z" style="fill:#b97964"></path><path d="M268,136.74c.13.63-.17,1.22-.6,1.28s-.84-.43-.94-1.07.18-1.22.6-1.28S267.9,136.08,268,136.74Z" style="fill:#263238"></path><path d="M260.68,137.78c.13.63-.18,1.22-.6,1.27s-.84-.42-.94-1.06.18-1.22.6-1.28S260.59,137.16,260.68,137.78Z" style="fill:#263238"></path><path d="M263.05,137.76a23.24,23.24,0,0,1-2.31,6,3.75,3.75,0,0,0,3.19.14Z" style="fill:#a24e3f"></path><path d="M269.93,134.05a.4.4,0,0,1-.39-.1,3.09,3.09,0,0,0-2.61-.93.38.38,0,1,1-.16-.74h0a3.79,3.79,0,0,1,3.31,1.12.39.39,0,0,1,0,.54h0Z" style="fill:#263238"></path><path d="M257.17,135.7a.4.4,0,0,1-.22.05.39.39,0,0,1-.25-.48h0a3.77,3.77,0,0,1,2.44-2.52.37.37,0,0,1,.46.26h0a.38.38,0,0,1-.26.47h0a3.12,3.12,0,0,0-1.9,2A.43.43,0,0,1,257.17,135.7Z" style="fill:#263238"></path><path d="M272.51,123.71l-.1,3.57a2.63,2.63,0,0,1,1.63,3.18c-.86,3.07,1.25,7.51,3.7,9.13,0,0-.05-1.29,1.06-1.08s1.44,6.92-.38,10.3c0,0,3.88-3.56,5-10.75,1.06-6.65.88-10.86-.07-14Z" style="fill:#263238"></path><path d="M284.15,138.83a7.65,7.65,0,0,1-3.8,4.44c-2.39,1.2-4.1-.82-3.87-3.35.23-2.25,1.73-5.65,4.35-5.77S284.89,136.46,284.15,138.83Z" style="fill:#b97964"></path><path d="M274.4,126.92a6.54,6.54,0,0,1-5.34,3.28s1.29-.19,2.34-2.16c0,0-5,3-9.59,2a3.9,3.9,0,0,0,2.56-1.56s-5.11,2.05-9-.26-3-6.63.24-8.25c0,0-.45,1.65.46,2.23,0,0,0-5,8.67-6.46s17.08,1,19.47,4.9a4.23,4.23,0,0,0-2.21-.85s5.56,4.19,1.86,7.4C280.64,129.94,274.4,126.92,274.4,126.92Z" style="fill:#263238"></path><path d="M265.07,146.22a21.94,21.94,0,0,1,2,2.42l.5-.24c2.23-1.1,2.9-2.35,3-3.41a3.25,3.25,0,0,0-.29-1.49,3.22,3.22,0,0,0-.45-.75,11.71,11.71,0,0,1-3.94,3.08C265.37,146.08,265.07,146.22,265.07,146.22Z" style="fill:#263238"></path><path d="M265.83,145.83l.6.7c2.1-1.05,3.44-2.07,3.79-3a3.22,3.22,0,0,0-.45-.75A11.71,11.71,0,0,1,265.83,145.83Z" style="fill:#fff"></path><path d="M267.54,148.4c2.23-1.1,2.9-2.35,3-3.41a8.14,8.14,0,0,0-2.24,1.72A3,3,0,0,0,267.54,148.4Z" style="fill:#de5753"></path><path d="M324.16,197.68c-10.33-4.29-18.5-22-18.5-22l5.87-3.55,8,6.41c.24.87.48,1.76.72,2.66,1.07,4.06,2.12,8.39,3.11,12.77C323.61,195.19,323.89,196.44,324.16,197.68Z" style="opacity:0.2;isolation:isolate"></path><path d="M317.72,162.19s19.47,19.55,22.13,23.35,7.73,45.92,7.73,45.92,1.07.37,1.17,1.28.17,12.74,0,13.29-9.14,6.07-10.46,4.76-3.17-14.71-3.17-14.71l4.73-4.62s-5.5-31-8.94-36-17.63-15.78-17.63-15.78Z" style="fill:#b97964"></path><path d="M302.75,154.32c-2.84,6-.68,18.67,4.55,23.13A153.11,153.11,0,0,0,324.8,190l9.57-12.5s-10.16-9.93-16.31-15.64C310.57,154.92,302.75,154.32,302.75,154.32Z" style="fill:#263238"></path></g></g><g id="freepik--character-3--inject-40"><path d="M423.62,199.79l-7.56,5.66-42.42-4.21.64-24.08a74.73,74.73,0,0,1,18.1-1,40.86,40.86,0,0,1,8.86,1.7c.83.24,1.66.51,2.47.78,6.35,2.18,11.57,5.07,12.35,5.82C417.29,185.68,423.62,199.79,423.62,199.79Z" style="fill:#eec1bb"></path><path d="M402.78,196.38c3,7.63-8.9,1.17-8.9,1.17l4-4.35s-1.07-8.62,3.34-15.31c.83.24,1.66.51,2.47.78C402.82,181.27,400.23,190,402.78,196.38Z" style="fill:#263238"></path><path d="M427.51,187.25,425.4,176.1s-.87-2.74-.26-3.89,6.17-6.7,7.24-6.54,4.72,5,4,6.56-6.18,5.61-6.85,5.8l3,8.54Z" style="fill:#eec1bb"></path><path d="M403.89,138.19s-6-7.45-15.8-5.79-8,19.78-8,19.78a13.08,13.08,0,0,0-4.16,12.93c1.9,8.2,24.2,12.95,32.73,7.24s1.93-23.78-2.17-26.34S403.89,138.19,403.89,138.19Z" style="fill:#263238"></path><path d="M388.6,182.66c8-1,10.42-4.44,10.42-4.44-5.08-4.8-.86-13.11-.86-13.11l-9.64,1.8a28,28,0,0,1,.37,4.06c.08,5.85-2.57,5.91-2.57,5.91C384.63,180.05,388.6,182.66,388.6,182.66Z" style="fill:#eec1bb"></path><path d="M388.52,166.91a28,28,0,0,1,.37,4.06c4.65-1.08,9.27-5.86,9.27-5.86Z" style="opacity:0.2;isolation:isolate"></path><path d="M397.11,140.23c-8.17-1.93-11.83,1.82-14.42,10.09-3.24,10.34-2.68,18.37,8.06,18.54C405.34,169.09,410.67,143.45,397.11,140.23Z" style="fill:#eec1bb"></path><path d="M388.07,151.11a17.58,17.58,0,0,1-3.17,2.83,2.28,2.28,0,0,0,1.93,1.43Z" style="fill:#d4827d"></path><path d="M393.23,151.63c-.17.67,0,1.3.49,1.42s.95-.33,1.12-1,0-1.3-.49-1.42S393.41,151,393.23,151.63Z" style="fill:#263238"></path><path d="M394.53,150.72l-1.3-.95S393.63,151.18,394.53,150.72Z" style="fill:#263238"></path><path d="M385,149.32c-.17.67,0,1.3.49,1.42s1-.33,1.12-1,0-1.3-.48-1.42S385.15,148.65,385,149.32Z" style="fill:#263238"></path><path d="M386.27,148.41l-1.3-.95S385.37,148.87,386.27,148.41Z" style="fill:#263238"></path><path d="M394.65,146a4.38,4.38,0,0,1,3.25,2.08" style="fill:none;stroke:#263238;stroke-linecap:round;stroke-linejoin:round;stroke-width:0.7246800000000001px"></path><path d="M388.8,144.26a3.91,3.91,0,0,0-3.42-.1" style="fill:none;stroke:#263238;stroke-linecap:round;stroke-linejoin:round;stroke-width:0.7246800000000001px"></path><path d="M387.26,158.87a20.92,20.92,0,0,1,.28,3.06l.54.08c2.43.32,3.67-.34,4.3-1.16a3.15,3.15,0,0,0,.57-1.38,3.3,3.3,0,0,0,.05-.86,11.74,11.74,0,0,1-4.91.36C387.58,158.92,387.26,158.87,387.26,158.87Z" style="fill:#263238"></path><path d="M388.09,159l.11.9c2.29.29,3.94.2,4.75-.4a3.3,3.3,0,0,0,.05-.86A11.74,11.74,0,0,1,388.09,159Z" style="fill:#fff"></path><path d="M388.08,162c2.43.32,3.67-.34,4.3-1.16a7.81,7.81,0,0,0-2.78.18A2.92,2.92,0,0,0,388.08,162Z" style="fill:#de5753"></path><path d="M402.77,156.11s-2.22-7.61-.42-12.66c0,0-14.61-10.44-19.31,5.79,0,0,1.88-15,16-12s9.18,23.52.48,27.92C399.52,165.21,404.14,160.87,402.77,156.11Z" style="fill:#263238"></path><path d="M401,157.52a3.68,3.68,0,0,1,4.63-2.36c2.47.88,2.44,6.36-4.15,6.11C400.57,161.24,400.27,160.24,401,157.52Z" style="fill:#eec1bb"></path><path d="M397.11,140.23s-3,10.29,6.19,15c11.12,5.63,10.06,17.79-.79,19.34,0,0,11-1.1,13.09-8.26s-3.92-18.17-3.92-18.17S415,142,406,137.28C401,134.59,397.11,140.23,397.11,140.23Z" style="fill:#263238"></path><path d="M398.16,139s-4.19,3-1.07,10.91" style="fill:none;stroke:#263238;stroke-linecap:round;stroke-linejoin:round;stroke-width:0.5px"></path><path d="M381,151.51s-11.51,7.45-4.05,17.05" style="fill:none;stroke:#263238;stroke-linecap:round;stroke-linejoin:round;stroke-width:0.5px"></path><path d="M380.63,367.93c6.38,8,12.11,15.3,17.11,20.6h0c5,5.37,7.58,8.7,7.58,8.7l4.94-2.84s-4.57-7.23-10.77-17.2c-5.27-8.46-11.72-18.9-17.58-28.57-7.58-12.5-14.16-23.71-15.9-27.72-1.24-2.85,2.11-13.8,5.82-24.12,3.77-10.51,7.91-20.38,7.91-20.38l-13.49-22.85s-5.49,15.21-10.37,31.26c-3.21,10.5-6.12,21.37-7.11,28.59C347.39,323.49,364.79,348,380.63,367.93Z" style="fill:#eec1bb"></path><path d="M380.58,367.93c6.38,8,12.51,15.3,17.07,20.6.65-3.26,1.31-7.12,1.83-11.33-5.27-8.46-11.72-18.9-17.58-28.57A110.64,110.64,0,0,1,380.58,367.93Z" style="opacity:0.2;isolation:isolate"></path><path d="M355.88,284.82l15.95,12c3.77-10.51,7.91-20.38,7.91-20.38l-13.49-22.85S360.76,268.77,355.88,284.82Z" style="opacity:0.2;isolation:isolate"></path><path d="M383.74,408.91l5.75.75s8.25-40.61,8-74.12a285.79,285.79,0,0,0,7.16-33.73c2-13.72,3-29,.34-40.4l-20,9-.41,30-.34,25Z" style="fill:#eec1bb"></path><path d="M384.58,300.41l20.07,1.4c2-13.72,3-29,.34-40.4l-20,9Z" style="opacity:0.2;isolation:isolate"></path><path d="M409.93,391.25c-.59-.43-5.56,7-5.56,7s1.1,7.77-1.14,12.79,2.12,4.59,5.74-.16l9-11.76C420.53,395.78,416,395.69,409.93,391.25Z" style="fill:#263238"></path><path d="M402.52,403.93a.92.92,0,0,1-.73-.43.94.94,0,0,1-.19-.75,3.59,3.59,0,0,1,1-1.72c-.75.34-1.51.56-1.9.29s-.34-.48-.24-.92a1.39,1.39,0,0,1,.67-.94c1.14-.66,3.24,0,3.35,0l.08.05h0l0,.06h0l0,.07h0v.1c-.14.64-.87,3.86-2,4.13Zm1.54-3.59c-.78.66-1.9,1.74-2,2.47a.5.5,0,0,0,.1.4c.22.28.36.25.41.24C403.1,403.32,403.7,401.72,404.06,400.34Zm-1.57-.7a2.18,2.18,0,0,0-1.08.23.92.92,0,0,0-.45.63c0,.13-.06.36,0,.43.34.23,1.67-.36,2.87-1.11A6.08,6.08,0,0,0,402.49,399.64Z" style="fill:#A9D8FF"></path><path d="M391.53,406c0-.73-9-.16-9-.16s-5.5,5.6-10.85,6.86-2.36,4.47,3.62,4.47h14.79C394.36,417.16,391.71,413.54,391.53,406Z" style="fill:#263238"></path><path d="M377.86,408.12a1.24,1.24,0,0,1-.79-.21.83.83,0,0,1-.22-1,1,1,0,0,1,.48-.61,3.7,3.7,0,0,1,2-.22c-.72-.39-1.36-.86-1.39-1.33,0-.31.18-.56.59-.75a1.38,1.38,0,0,1,1.16,0c1.21.5,2,2.57,2,2.68a.28.28,0,0,1,0,.09h0a.19.19,0,0,1,0,.07h0s0,.05,0,.06h0l-.07.05A11.42,11.42,0,0,1,377.86,408.12Zm.76-1.56a2.28,2.28,0,0,0-1.06.2.47.47,0,0,0-.25.31c-.09.35,0,.45.06.48.42.34,2.06-.15,3.38-.71A10.42,10.42,0,0,0,378.62,406.56Zm.52-2.18a1,1,0,0,0-.41.09c-.12.06-.32.18-.32.3,0,.41,1.31,1.1,2.63,1.61a3.89,3.89,0,0,0-1.53-1.93A1,1,0,0,0,379.14,404.38Z" style="fill:#A9D8FF"></path><path d="M375.7,291.16l-21.63-11.33c6.81-20.68,12.94-32.4,12.94-32.4,21.26,3.64,19.32,20.45,19.32,20.45S380.91,279.09,375.7,291.16Z" style="fill:#A9D8FF"></path><path d="M377.09,288l-1.39,3.19-21.62-11.33c6.8-20.67,12.93-32.4,12.93-32.4,13.12,2.26,17.4,9.51,18.76,14.74a17.31,17.31,0,0,1,.56,5.71S381.84,277.19,377.09,288Z" style="fill:#fff;opacity:0.6000000000000001;isolation:isolate"></path><path d="M377.09,288c4.75-10.78,9.24-20.09,9.24-20.09a17.31,17.31,0,0,0-.56-5.71,6.83,6.83,0,0,0-2.21-.93S377.78,270.31,377.09,288Z" style="opacity:0.2;isolation:isolate"></path><path d="M382.4,295.83l.74-34.59-17.14-5s1.35-15.87,3.35-23.7c0,0,27.85-6.93,32.09,2.51,0,0,0,.15.06.2l.07.09s8,14.07,5.61,60.49Z" style="fill:#A9D8FF"></path><path d="M382.4,295.83l.74-34.59-17.14-5s1.35-15.87,3.35-23.7c0,0,27.85-6.93,32.09,2.51,0,0,0,.15.06.2l.07.09s8,14.07,5.61,60.49Z" style="fill:#fff;opacity:0.6000000000000001;isolation:isolate"></path><polygon points="401.74 230.26 401.74 234.98 369.74 232.51 369.74 226.93 401.74 230.26" style="fill:#263238"></polygon><rect x="390.69" y="228.31" width="1.6" height="8.16" transform="translate(770.62 484.45) rotate(-177.07)" style="fill:#A9D8FF"></rect><rect x="376.69" y="228.38" width="7.08" height="5.37" transform="translate(738.32 495.12) rotate(-174.88)" style="fill:#fff"></rect><rect x="371" y="226.15" width="1.6" height="8.16" transform="translate(731.38 479.1) rotate(-177.08)" style="fill:#A9D8FF"></rect><rect x="390.69" y="228.31" width="1.6" height="8.16" transform="translate(770.62 484.45) rotate(-177.07)" style="fill:#fff;opacity:0.6000000000000001;isolation:isolate"></rect><rect x="371" y="226.15" width="1.6" height="8.16" transform="translate(731.38 479.1) rotate(-177.08)" style="fill:#fff;opacity:0.6000000000000001;isolation:isolate"></rect><polygon points="409.24 294.41 380.99 294.16 381.49 298.41 407.99 298.16 409.24 294.41" style="fill:#A9D8FF"></polygon><polygon points="377.49 290.91 353.99 278.16 352.74 281.91 375.49 293.16 377.49 290.91" style="fill:#A9D8FF"></polygon><path d="M365.55,173.89l5.39-9.53a21.39,21.39,0,0,0,3.09-2.69c.71-1,3.08-4,2.48-4s-11.16-1.8-11.75-1.09,2.53,6.5,2.53,6.5l-6.11,7.06Z" style="fill:#eec1bb"></path><path d="M364.55,156.13a2.29,2.29,0,0,0-.15,1.36c.14.8,1.1,2,2.13,1.83s1.82-1,3.34-.59,2.31,1,3.52,1a5.43,5.43,0,0,1,2.39.82,3.19,3.19,0,0,0,2.53.29,26.5,26.5,0,0,0,3.12-.56c.55-.19,2.74.91,2.74.91s.54-1.67-2.73-4.42S364.55,156.13,364.55,156.13Z" style="fill:#A9D8FF"></path><path d="M384.41,160.57a4.08,4.08,0,0,0-.66-1.46c-.58-.79-1.38-1.4-1.89-2.24a3.1,3.1,0,0,1-.41-1,8,8,0,0,1-1.22-.29,3.08,3.08,0,0,1-1.44-1.3,2.46,2.46,0,0,0-1.23-1.17c-.84-.29-2-.36-2.68-1.05a78.69,78.69,0,0,0-10.33,4.06l.25.35.75,1,.24.35c.54.76,1.23.65,1.95.4l.21-.07a4.26,4.26,0,0,1,1.63-.41,6.72,6.72,0,0,1,2,.45.67.67,0,0,1-.13.21l.31-.14c.88.34,1.91.82,3.12,1.36a7.8,7.8,0,0,0,1.33.46l.31.07a7.14,7.14,0,0,0,2.65,0,16.25,16.25,0,0,0,2-.52c2.08-.68,3.05,1.56,3.05,1.56a1.06,1.06,0,0,0,.24-.21A3.08,3.08,0,0,1,384.41,160.57Z" style="fill:#A9D8FF"></path><path d="M384.41,160.57a4.08,4.08,0,0,0-.66-1.46c-.58-.79-1.38-1.4-1.89-2.24a3.1,3.1,0,0,1-.41-1,8,8,0,0,1-1.22-.29,3.08,3.08,0,0,1-1.44-1.3,2.46,2.46,0,0,0-1.23-1.17,10.88,10.88,0,0,1-2.36-.78,71.93,71.93,0,0,0-10.4,4.14l.75,1,.24.35c.54.76,1.23.65,1.95.4l.21-.07a4.26,4.26,0,0,1,1.63-.41,6.72,6.72,0,0,1,2,.45.67.67,0,0,1-.13.21l.31-.14c.88.34,1.91.82,3.12,1.36a7.8,7.8,0,0,0,1.33.46l.31.07a7.14,7.14,0,0,0,2.65,0,16.25,16.25,0,0,0,2-.52c2.08-.68,3.05,1.56,3.05,1.56a1.06,1.06,0,0,0,.24-.21A3.08,3.08,0,0,1,384.41,160.57Z" style="fill:#fff;opacity:0.30000000000000004"></path><path d="M383.75,159.11c-.51-.69-1.18-1.26-1.68-2l-.19.16a2.61,2.61,0,0,1-1.24.41,1.48,1.48,0,0,1-.93-.07c-.15-.08-.27-.22-.42-.31s-.46-.15-.56-.35a.33.33,0,0,1,.18-.46,10.43,10.43,0,0,1,1.33-.57l.69-.19a4,4,0,0,1-.7-.19,3.08,3.08,0,0,1-1.44-1.3,2.46,2.46,0,0,0-1.23-1.17,6,6,0,0,0-.74-.2,3,3,0,0,1-1.35.36c-1.29.11-2.11-.34-2.79.67-.18.27-.29.45-.39.58-.28.37-.43.34-1.39.6-1.3.34-2.27,0-3,.88a3.16,3.16,0,0,1-2.39,1.51l.24.35c.54.76,1.23.65,1.95.4a1,1,0,0,1,.2-.24,1.42,1.42,0,0,1,.3-.3c.48-.4.81-.29,1.41-.28h.2l.13,0,.19-.08h0l.16-.12.48-.4.14-.12a4.6,4.6,0,0,1,1.86-1.14,2.87,2.87,0,0,1,2.53.71,1.27,1.27,0,0,0,.92.22c.14,0,.34-.06.37.08s-.08.18-.16.23l-.54.32a.83.83,0,0,1-.3.14A1,1,0,0,1,375,157a1.85,1.85,0,0,0-.95-.13,2.58,2.58,0,0,0-1.73.31.24.24,0,0,0-.1.05c-.48.29-.44.66-.61,1a.67.67,0,0,1-.13.21l.31-.14c.88.34,1.91.82,3.12,1.36a7.8,7.8,0,0,0,1.33.46l.31.07a7.14,7.14,0,0,0,2.65,0,1.48,1.48,0,0,1,.23-.38,1,1,0,0,1,.42-.22l1.54-.5a.93.93,0,0,1,.8,0c.18.11.26.33.44.45a.9.9,0,0,0,.63.08,1.49,1.49,0,0,1,.63,0,.48.48,0,0,1,.26.16A3.56,3.56,0,0,0,383.75,159.11Z" style="fill:#fff;opacity:0.30000000000000004"></path><path d="M367.93,158.14a.14.14,0,0,0,0,.06,4.26,4.26,0,0,1,1.63-.41,6.72,6.72,0,0,1,2,.45.67.67,0,0,1-.13.21l.31-.14c.48-.24.77-.56.73-.84a.45.45,0,0,0-.2-.31,2.41,2.41,0,0,0-1.46-.35,5.17,5.17,0,0,0-.76.06c-1.16.17-2.07.68-2.12,1.16A.21.21,0,0,0,367.93,158.14Z" style="fill:#A9D8FF"></path><polygon points="377.52 155.76 377.76 154.61 376.15 154.79 375.82 156.01 377.52 155.76" style="fill:#A9D8FF"></polygon><path d="M376.2,160.13l.31.07-.11-.25Z" style="fill:#A9D8FF"></path><polygon points="378.9 157.68 377.15 157.72 377.6 158.69 378.9 157.68" style="fill:#A9D8FF"></polygon><polygon points="372.25 154.25 370.9 155.13 372.35 154.91 372.25 154.25" style="fill:#A9D8FF"></polygon><path d="M372.34,176.15,371,187.87l-2.23,19.4A69.94,69.94,0,0,1,355.43,212c-5.61,1.27-11.25,1.31-13.05-2.8C335.56,193.59,362.86,167,362.86,167l6.88,4.9-3.12,7.22A9,9,0,0,1,372.34,176.15Z" style="fill:#A9D8FF"></path><path d="M371,187.87l-2.23,19.4A69.94,69.94,0,0,1,355.43,212C356,200.54,367.77,190.44,371,187.87Z" style="opacity:0.2;isolation:isolate"></path><path d="M439.11,235c-14.84,5-23.05-9.91-23.05-9.91s.15,6.29.15,13.9c0,8.8-.18,19.36-1,24-1.59,8.64-7.56,9.56-7.56,9.56-6.16-.79-45.37-14.66-45.37-14.66-5.07-10.1,3.67-26.09,4.66-29.9s-.79-21.51-.79-21.51L366,195.17a31.59,31.59,0,0,1,6.34-19c2-.5,9.39-1.63,9.39.09-.12.35-.62,2.52,10.65,8.72,10.43,5.75,22.77,5.47,28.09,4.49,4.86,7.79,5,9.38,5.88,9.65,1.39.42-.36-15.46-.36-15.46l7-2.34S454,230,439.11,235Z" style="fill:#A9D8FF"></path><path d="M416.21,239c-2.36-1.23-5.51-3.78-8.3-9-5.3-9.93,1.33-24.62,1.33-24.62-.26,7.92,6.82,19.74,6.82,19.74S416.21,231.36,416.21,239Z" style="opacity:0.2;isolation:isolate"></path><path d="M366.62,179.11s-8.41,22.4-14.35,26.22c0,0,5.47-1.19,8.41-8A168.16,168.16,0,0,0,366.62,179.11Z" style="opacity:0.2;isolation:isolate"></path><path d="M398.63,221.76c.39,1,.51,3.91.5,7.32,0,6.4-.5,14.49-.5,14.49l-28.42-6.36s2.91-11.42,3.43-15.45a18.32,18.32,0,0,0-.07-3.87,101.67,101.67,0,0,0-1.77-10.62l2.58-9.46,25.6,2.13S397.51,218.93,398.63,221.76Z" style="fill:#fff;opacity:0.4;isolation:isolate"></path><path d="M399.13,229.08c0,6.4-.5,14.49-.5,14.49l-28.42-6.36s2.91-11.42,3.43-15.45a18.32,18.32,0,0,0-.07-3.87l5.33,7.18,9.9-9.07Z" style="fill:#fff;opacity:0.2"></path></g></svg>